<?xml version="1.0" encoding="utf-8"?>
<svg xmlns="http://www.w3.org/2000/svg" xmlns:xlink="http://www.w3.org/1999/xlink">
    <symbol id="arrow_down" viewBox="0 0 42.736 27.435">
        <path d="M22.563,26.938c-0.663,0.663-1.724,0.663-2.387,0L0.498,7.286c-0.663-0.663-0.663-1.75,0-2.413L4.9,0.497
		c0.663-0.663,1.724-0.663,2.387,0l14.082,14.082L35.45,0.497c0.663-0.663,1.725-0.663,2.388,0l4.401,4.376
		c0.663,0.663,0.663,1.75,0,2.413L22.563,26.938z"/>
    </symbol>
    <symbol id="arrow_up" viewBox="0 0 42.736 27.435">
        <path d="M42.239,20.149c0.663,0.662,0.663,1.75,0,2.413l-4.401,4.376c-0.663,0.662-1.725,0.662-2.388,0
		L21.369,12.856L7.287,26.938c-0.663,0.662-1.724,0.662-2.387,0l-4.402-4.376c-0.663-0.663-0.663-1.751,0-2.413L20.175,0.498
		c0.663-0.663,1.724-0.663,2.387,0L42.239,20.149z"/>
    </symbol>
</svg>